<?xml version="1.0" standalone="no"?>
<!DOCTYPE svg PUBLIC "-//W3C//DTD SVG 20010904//EN"
 "http://www.w3.org/TR/2001/REC-SVG-20010904/DTD/svg10.dtd">
<svg version="1.0" xmlns="http://www.w3.org/2000/svg"
 width="700.000000pt" height="700.000000pt" viewBox="0 0 700.000000 700.000000"
 preserveAspectRatio="xMidYMid meet">
<metadata>
Created by potrace 1.14, written by Peter Selinger 2001-2017
</metadata>
<g transform="translate(0.000000,700.000000) scale(0.100000,-0.100000)"
fill="#000000" stroke="none">
<path d="M465 6108 c-27 -5 -88 -27 -135 -50 -146 -70 -257 -203 -307 -368
-15 -49 -17 -143 -19 -905 -1 -543 1 -798 7 -705 25 431 114 1016 195 1272 74
236 204 407 369 489 143 70 674 175 1140 223 172 18 398 35 610 45 98 5 -219
8 -825 8 -574 1 -1006 -3 -1035 -9z"/>
<path d="M4625 6113 c590 -28 971 -70 1385 -153 341 -68 489 -129 616 -255 79
-79 108 -132 168 -310 111 -327 179 -769 195 -1255 6 -185 8 -14 7 620 -2 786
-4 881 -19 930 -50 165 -161 298 -307 368 -47 22 -112 45 -144 51 -40 7 -371
10 -1010 9 -523 -1 -924 -3 -891 -5z"/>
<path d="M2615 5539 c-696 -10 -1031 -44 -1475 -151 -149 -35 -224 -73 -289
-143 -117 -128 -180 -322 -241 -739 -48 -331 -55 -455 -54 -981 1 -492 8 -647
38 -855 8 -58 27 -186 40 -286 31 -218 60 -327 125 -459 59 -120 102 -172 181
-220 135 -82 251 -110 770 -190 224 -34 457 -47 941 -52 486 -5 1287 14 1579
38 320 26 602 86 849 181 91 36 110 47 162 100 70 73 136 196 173 323 31 108
91 488 106 675 17 210 23 893 11 1220 -15 415 -56 712 -132 955 -44 140 -71
197 -121 251 -85 92 -169 133 -405 193 -493 125 -1012 157 -2258 140z m460
-1606 c393 -236 714 -430 714 -433 0 -6 -1441 -870 -1452 -870 -4 0 -7 392 -7
871 0 790 1 871 16 865 8 -3 337 -198 729 -433z"/>
<path d="M5840 5105 l0 -145 435 0 435 0 0 145 0 145 -435 0 -435 0 0 -145z"/>
<path d="M5840 4520 l0 -140 435 0 435 0 0 140 0 140 -435 0 -435 0 0 -140z"/>
<path d="M5840 3935 l0 -145 433 2 432 3 3 143 3 142 -436 0 -435 0 0 -145z"/>
<path d="M6159 3482 c-123 -32 -226 -120 -282 -240 -27 -57 -32 -81 -35 -162
-3 -78 0 -106 17 -155 80 -226 316 -345 543 -275 313 97 407 497 169 724 -66
62 -138 100 -221 116 -72 14 -113 12 -191 -8z m199 -299 c61 -44 79 -135 40
-193 -38 -55 -73 -75 -129 -74 -76 1 -136 55 -145 130 -7 53 29 123 76 147 44
23 120 18 158 -10z"/>
<path d="M5 2140 c1 -1179 -3 -1097 66 -1239 45 -90 161 -205 252 -249 140
-67 -114 -62 3209 -60 l3013 3 65 25 c179 70 310 213 367 400 15 50 17 151 19
1020 1 619 -2 908 -7 805 -17 -330 -56 -639 -120 -965 -50 -248 -130 -421
-254 -546 -92 -94 -129 -114 -315 -177 -301 -102 -651 -172 -1055 -212 -424
-42 -759 -54 -1665 -62 -1031 -8 -1405 10 -2192 107 -349 43 -473 66 -617 112
-128 40 -283 121 -333 172 -54 56 -140 187 -177 268 -76 171 -113 327 -171
727 -22 156 -42 287 -45 291 -4 7 -32 418 -38 570 -2 41 -3 -404 -2 -990z"/>
<path d="M6168 2319 c-117 -27 -236 -125 -290 -238 -27 -56 -33 -80 -36 -157
-7 -149 31 -247 133 -343 253 -239 671 -95 725 249 26 172 -61 355 -210 443
-86 50 -223 70 -322 46z m181 -298 c91 -64 92 -188 2 -248 -119 -80 -273 48
-217 180 35 83 145 117 215 68z"/>
</g>
</svg>
